<svg id="Layer_1" data-name="Layer 1" xmlns="http://www.w3.org/2000/svg" viewBox="0 0 286.71 71.3"><defs><style>.cls-1{fill:#ecd444;}.cls-2{fill:#dac4f7;}.cls-3{fill:#2e4052;}</style></defs><title>duku-logo</title><polygon class="cls-1" points="250.02 6.79 213.33 70.33 286.71 70.33 250.02 6.79"/><circle class="cls-2" cx="214.13" cy="40.76" r="29.57"/><path class="cls-3" d="M49.9,0V70.5H37.5V62.6A15.66,15.66,0,0,1,31.15,69a19.22,19.22,0,0,1-9.45,2.3,20.29,20.29,0,0,1-11.25-3.2,21.18,21.18,0,0,1-7.7-9A31.31,31.31,0,0,1,0,45.6,30.35,30.35,0,0,1,2.75,32.3a20.8,20.8,0,0,1,7.65-8.8,20.74,20.74,0,0,1,11.3-3.1,19.53,19.53,0,0,1,9.4,2.2,15.3,15.3,0,0,1,6.3,6.2V0ZM34.25,57.5q3.26-4.09,3.25-11.7T34.25,34.15a11.07,11.07,0,0,0-9.15-4q-6,0-9.3,4T12.5,45.6q0,7.6,3.3,11.8A11,11,0,0,0,25,61.6Q31,61.6,34.25,57.5Z"/><path class="cls-3" d="M105.7,21.6V70.5H93.5V63a15.86,15.86,0,0,1-6.2,6.15,18,18,0,0,1-8.8,2.15q-18,0-18-20.2V21.6H73V51.2c0,3.47.7,6,2.1,7.7s3.6,2.5,6.6,2.5A10.76,10.76,0,0,0,90.05,58,13,13,0,0,0,93.2,48.8V21.6Z"/><path class="cls-3" d="M165.7,70.5H150.2l-21-22.3V70.5H116.7V0h12.5V43l19.7-21.3h15.2l-22,23.4Z"/><path class="cls-3" d="M213.2,21.6V70.5H201V63a15.93,15.93,0,0,1-6.2,6.15A18,18,0,0,1,186,71.3q-18,0-18-20.2V21.6h12.5V51.2c0,3.47.7,6,2.1,7.7s3.6,2.5,6.6,2.5A10.77,10.77,0,0,0,197.55,58a13,13,0,0,0,3.15-9.15V21.6Z"/></svg>